# xmcd
#
# Track frame offsets:
#	150
#	14962
#	28391
#	40792
#	53205
#	63120
#	77722
#	88232
#	101545
#	115716
#	132339
#	144033
#	157013
#	173743
#
# Disc length: 2532 seconds
# Revision: 0
# Processed by: cddbd v1.5.2PL0 Copyright (c) Steve Scherf et al.
# Submitted via: dBpowerAMP V12.0
#
DISCID=b909e20e
DTITLE=Corrina Rose Logston - Bluegrass Fiddler
DYEAR=2016
DGENRE=Country
TTITLE0=Laughing Boy
TTITLE1=JC's Hornpipe
TTITLE2=Sandridge
TTITLE3=I Don't Blame You
TTITLE4=Snowflake Breakdown
TTITLE5=Wilson's Hornpipe
TTITLE6=Charleston No. 1
TTITLE7=Smokey Mountain Rag
TTITLE8=Junior Jump Waltz
TTITLE9=Honeycat Hornpipe
TTITLE10=Foggy Mountain Top
TTITLE11=Soppin' the Gravy
TTITLE12=Highlander's Farewell
TTITLE13=Whispering Hope
EXTD=
EXTT0=
EXTT1=
EXTT2=
EXTT3=
EXTT4=
EXTT5=
EXTT6=
EXTT7=
EXTT8=
EXTT9=
EXTT10=
EXTT11=
EXTT12=
EXTT13=
PLAYORDER=
